<svg xmlns="http://www.w3.org/2000/svg" viewBox="0 0 800 600" role="img" aria-label="Café Kaffa molido a la medida del método">
  <rect width="800" height="600" fill="#DCCDB2"/>
  <circle cx="400" cy="300" r="250" fill="#EFE3CD"/>
  <ellipse cx="420" cy="518" rx="220" ry="28" fill="#12203A" opacity=".12"/>
  <g transform="translate(180 150)">
    <path d="M0 46h226v330c0 20-16 36-36 36H36c-20 0-36-16-36-36z" fill="#1A2C4C"/>
    <path d="M0 46 L38 8h150l38 38z" fill="#243D63"/>
    <rect x="26" y="98" width="174" height="94" fill="#A81C22"/>
    <rect x="26" y="200" width="174" height="36" fill="#2E7A3E"/>
    <rect x="22" y="94" width="182" height="146" fill="none" stroke="#C9A24A" stroke-width="4"/>
    <rect x="26" y="270" width="112" height="7" fill="#C9A24A"/>
    <rect x="26" y="292" width="78" height="7" fill="#C9A24A" opacity=".55"/>
  </g>
  <g transform="translate(500 336)">
    <path d="M-118 108c14-64 54-108 118-108s104 44 118 108z" fill="#4B2B1B"/>
    <path d="M-118 108c14-64 54-108 118-108v108z" fill="#5E3520"/>
    <ellipse cy="108" rx="118" ry="20" fill="#3D2317"/>
    <g fill="#3D2317" opacity=".65">
      <circle cx="-52" cy="70" r="5"/><circle cx="-14" cy="52" r="4"/><circle cx="30" cy="66" r="5"/><circle cx="66" cy="86" r="4"/><circle cx="-84" cy="92" r="4"/>
    </g>
  </g>
  <g transform="translate(586 250) rotate(18)">
    <rect x="-14" y="-96" width="28" height="96" rx="10" fill="#C9CFD8"/>
    <path d="M-44 0h88c0 40-20 62-44 62S-44 40-44 0z" fill="#A9B3C0"/>
    <path d="M-36 4h72c0 30-16 48-36 48S-36 34-36 4z" fill="#4B2B1B"/>
  </g>
</svg>
